HIERARCHY
ROOT Hips
{
	OFFSET 0.00000 0.00000 0.00000
	CHANNELS 6 Xposition Yposition Zposition Zrotation Yrotation Xrotation 
	JOINT LHipJoint
	{
		OFFSET 0 0 0
		CHANNELS 3 Zrotation Yrotation Xrotation
		JOINT LeftHip
		{
			OFFSET 1.56857 -1.73443 1.15205
			CHANNELS 3 Zrotation Yrotation Xrotation
			JOINT LeftKnee
			{
				OFFSET 2.39362 -6.57643 0.00000
				CHANNELS 3 Zrotation Yrotation Xrotation
				JOINT LeftAnkle
				{
					OFFSET 2.50952 -6.89485 0.00000
					CHANNELS 3 Zrotation Yrotation Xrotation
					JOINT LeftToe
					{
						OFFSET 0.17171 -0.47178 1.88682
						CHANNELS 3 Zrotation Yrotation Xrotation
						End Site
						{
							OFFSET 0.00000 -0.00000 0.98146
						}
					}
				}
			}
		}
	}
	JOINT RHipJoint
	{
		OFFSET 0 0 0
		CHANNELS 3 Zrotation Yrotation Xrotation
		JOINT RightHip
		{
			OFFSET -1.28153 -1.73443 1.15205
			CHANNELS 3 Zrotation Yrotation Xrotation
			JOINT RightKnee
			{
				OFFSET -2.26861 -6.23296 0.00000
				CHANNELS 3 Zrotation Yrotation Xrotation
				JOINT RightAnkle
				{
					OFFSET -2.54143 -6.98254 0.00000
					CHANNELS 3 Zrotation Yrotation Xrotation
					JOINT RightToe
					{
						OFFSET -0.23309 -0.64041 1.93119
						CHANNELS 3 Zrotation Yrotation Xrotation
						End Site
						{
							OFFSET -0.00000 -0.00000 1.02013
						}
					}
				}
			}
		}
	}
	JOINT lowerback
	{
		OFFSET 0 0 0
		CHANNELS 3 Zrotation Yrotation Xrotation
		JOINT Chest
		{
			OFFSET -0.07096 2.10460 -0.27878
			CHANNELS 3 Zrotation Yrotation Xrotation
			JOINT Chest2
			{
				OFFSET -0.00826 2.13662 -0.08279
				CHANNELS 3 Zrotation Yrotation Xrotation
				JOINT lowerneck
				{
					OFFSET 0 0 0
					CHANNELS 3 Zrotation Yrotation Xrotation
					JOINT Neck
					{
						OFFSET 0.03239 1.77799 0.24435
						CHANNELS 3 Zrotation Yrotation Xrotation
						JOINT Head
						{
							OFFSET 0.01026 1.74194 -0.49664
							CHANNELS 3 Zrotation Yrotation Xrotation
							End Site
							{
								OFFSET 0.00170 1.83057 -0.19653
							}
						}
					}
				}
				JOINT LeftCollar
				{
					OFFSET 0 0 0
					CHANNELS 3 Zrotation Yrotation Xrotation
					JOINT LeftShoulder
					{
						OFFSET 3.19178 1.35907 -0.31412
CHANNELS 3 Zrotation Xrotation Yrotation
						JOINT LeftElbow
						{
OFFSET 0 -4.852470 -0.000000
CHANNELS 3 Zrotation Xrotation Yrotation
							JOINT LeftWrist
							{
OFFSET 0 -3.555840 0.000000
CHANNELS 3 Zrotation Xrotation Yrotation
								JOINT lhand
								{
									OFFSET 0 0 0
CHANNELS 3 Zrotation Xrotation Yrotation
									JOINT LFingers
									{
OFFSET 0 -0.693200 0.000000
CHANNELS 3 Zrotation Xrotation Yrotation
										End Site
										{
OFFSET 0 -0.558880 0.000000
										}
									}
								}
								JOINT LThumb
								{
OFFSET 0 0.000000 0.000000
CHANNELS 3 Zrotation Xrotation Yrotation
									End Site
									{
OFFSET 0 -0.567410 0.567410
									}
								}
							}
						}
					}
				}
				JOINT RightCollar
				{
					OFFSET 0 0 0
					CHANNELS 3 Zrotation Yrotation Xrotation
					JOINT RightShoulder
					{
						OFFSET -3.28999 1.24191 -0.26899
CHANNELS 3 Zrotation Xrotation Yrotation
						JOINT RightElbow
						{
OFFSET 0 -4.644620 0.000000
CHANNELS 3 Zrotation Xrotation Yrotation
							JOINT RightWrist
							{
OFFSET 0 -3.407030 0.000000
CHANNELS 3 Zrotation Xrotation Yrotation
								JOINT rhand
								{
									OFFSET 0 0 0
CHANNELS 3 Zrotation Xrotation Yrotation
									JOINT RFingers
									{
OFFSET 0 -0.619580 0.000000
CHANNELS 3 Zrotation Xrotation Yrotation
										End Site
										{
OFFSET 0 -0.499520 0.000000
										}
									}
								}
								JOINT RThumb
								{
OFFSET 0 0.000000 0.000000
CHANNELS 3 Zrotation Xrotation Yrotation
									End Site
									{
OFFSET 0 -0.507150 0.507150
									}
								}
							}
						}
					}
				}
			}
		}
	}
}
MOTION
Frames: 5
Frame Time: 0.008333333333333333
-29.259000 16.997800 1.114600 14.252900 84.808500 14.264700 0.000000 0.000000 0.000000 -13.806500 3.445400 13.427400 0.015200 -0.796900 -2.190300 0.167200 12.940700 -20.330900 0.325700 -3.668000 -10.144600 0.000000 0.000000 0.000000 12.594600 -4.691600 7.496000 -0.015000 -0.791200 2.174600 -0.515800 6.575800 -12.907200 -0.248900 -3.210200 8.864500 -3.913200 1.181100 1.459900 0.128000 1.571100 1.992500 2.315300 0.742500 1.119900 2.612200 2.350500 -21.816500 -0.956900 2.693500 20.076600 -0.363900 1.353600 10.045800 -0.000000 0.000000 0.000000 0.758200 -3.241100 -36.644100 10.323500 -17.244000 1.569500 14.456300 13.108600 26.120900 0.000000 0.000000 0.000000 -7.125000 0.000000 0.000000 -9.266200 3.424100 -8.814200 -0.000000 0.000000 0.000000 -4.056500 -0.289800 45.684300 -15.414800 -24.720700 -3.397500 -11.324800 10.458500 32.516100 0.000000 0.000000 0.000000 7.125000 0.000000 -0.000000 24.625500 61.306800 -10.122500
-29.259929 16.997356 1.110000 13.326209 84.738575 13.351037 0.000000 0.000000 0.000000 -13.496306 4.067021 13.109431 0.013438 -0.748076 -2.055794 0.171568 12.534829 -19.866786 0.349120 -3.793542 -10.496945 0.000000 0.000000 0.000000 12.604887 -4.787504 7.373068 -0.015849 -0.812943 2.234193 -0.501976 6.766032 -12.768419 -0.266172 -3.317950 9.165231 -3.802753 1.233821 1.438146 0.157950 1.643075 2.011372 2.284399 0.778856 1.148443 2.557367 2.304654 -21.869014 -0.950815 2.644387 20.076164 -0.359667 1.326964 10.053209 0.000000 0.000000 0.000000 0.770798 -3.276743 -37.040352 10.336620 -17.264384 1.573347 13.740611 13.187585 25.958325 0.000000 0.000000 0.000000 -7.125000 0.000000 0.000000 -9.687301 3.685807 -9.178973 0.000000 0.000000 0.000000 -4.090393 -0.313941 45.636468 -15.433641 -24.746750 -3.405417 -11.174725 10.342609 32.802493 0.000000 0.000000 0.000000 7.125000 0.000000 0.000000 25.046517 61.526116 -10.438744
-29.263958 16.998340 1.111658 13.700889 84.745033 13.708557 0.000000 0.000000 0.000000 -13.358207 4.444300 12.875951 0.011649 -0.697887 -1.917818 0.133175 12.478439 -19.363950 0.456399 -4.333632 -12.017278 0.000000 0.000000 0.000000 12.661416 -4.470340 7.539820 -0.014816 -0.785192 2.157898 -0.512309 6.646131 -12.874271 -0.286379 -3.441134 9.509479 -3.813137 1.251695 1.491621 0.107274 1.665195 2.008173 2.236545 0.790985 1.114918 2.654547 2.298947 -21.812522 -0.974203 2.610672 20.023663 -0.389610 1.316310 10.025429 0.000000 0.000000 0.000000 0.967706 -3.240507 -37.531537 10.378876 -17.330065 1.585977 13.651542 12.885342 25.834317 0.000000 0.000000 0.000000 -7.125000 0.000000 0.000000 -9.733565 3.821715 -9.199330 0.000000 0.000000 0.000000 -3.995985 -0.259877 45.435749 -15.391444 -24.688598 -3.387736 -11.193776 10.521872 32.880777 0.000000 0.000000 0.000000 7.125000 0.000000 0.000000 25.099494 61.600585 -10.506847
-29.264613 16.996687 1.110267 13.248924 84.655230 13.284189 0.000000 0.000000 0.000000 -13.588957 3.893561 13.219558 0.015134 -0.793412 -2.180589 0.156225 12.782818 -20.011682 0.377399 -3.945624 -10.923673 0.000000 0.000000 0.000000 12.664170 -4.527330 7.435269 -0.015333 -0.799255 2.196557 -0.507993 6.621748 -12.820450 -0.283757 -3.425837 9.466693 -3.803520 1.252120 1.431163 0.144021 1.668379 2.027185 2.270768 0.791086 1.167283 2.726779 2.339359 -21.848400 -1.092004 2.670173 20.020054 -0.433921 1.334519 10.034687 0.000000 0.000000 0.000000 0.919287 -3.272965 -37.340975 10.368603 -17.314008 1.582906 15.956063 12.091959 25.387391 0.000000 0.000000 0.000000 -7.125000 0.000000 0.000000 -8.307519 3.945543 -7.800685 0.000000 0.000000 0.000000 -4.093944 -0.257473 45.729134 -15.406050 -24.708716 -3.393885 -11.283326 10.619490 32.969810 0.000000 0.000000 0.000000 7.125000 0.000000 0.000000 25.088820 61.702070 -10.562543
-29.266434 16.997566 1.109465 14.761918 84.621621 14.710113 0.000000 0.000000 0.000000 -13.851501 3.743280 13.362816 0.015452 -0.802423 -2.205338 0.133245 12.976388 -20.007229 0.359118 -3.849630 -10.653970 0.000000 0.000000 0.000000 12.444012 -4.632256 7.480689 -0.016311 -0.824988 2.267367 -0.511126 6.777035 -12.877653 -0.227232 -3.067028 8.465585 -3.899558 1.258124 1.500425 0.077042 1.675011 2.051736 2.254290 0.794024 1.152833 2.760929 2.351699 -21.808956 -1.071885 2.673091 20.031194 -0.432229 1.341467 10.031882 0.000000 0.000000 0.000000 0.899522 -3.292450 -37.051719 10.285956 -17.185574 1.558377 14.543108 13.072713 26.098260 0.000000 0.000000 0.000000 -7.125000 0.000000 0.000000 -9.212138 3.433869 -8.760009 0.000000 0.000000 0.000000 -3.990414 -0.324921 45.409927 -15.286416 -24.543534 -3.343960 -10.968731 10.516623 32.370898 0.000000 0.000000 0.000000 7.125000 0.000000 0.000000 24.866813 61.090233 -10.100392
